<svg width="0" height="0" class="hidden">
  <symbol fill="#000000" version="1.1" id="calculator" xmlns="http://www.w3.org/2000/svg" xmlns:xlink="http://www.w3.org/1999/xlink" xml:space="preserve" viewBox="0 0 196.973 196.973">
    <path d="M178.024,0.531h-51.983c-10.448,0-18.948,8.501-18.948,18.949v51.983c0,10.448,8.5,18.948,18.948,18.948h51.983
	c10.448,0,18.948-8.5,18.948-18.948V19.48C196.973,9.032,188.473,0.531,178.024,0.531z M172.616,52.971h-41.167
	c-4.142,0-7.5-3.357-7.5-7.5s3.358-7.5,7.5-7.5h41.167c4.142,0,7.5,3.357,7.5,7.5S176.758,52.971,172.616,52.971z M70.932,0.531
	H18.948C8.5,0.531,0,9.032,0,19.48v51.983c0,10.448,8.5,18.948,18.948,18.948h51.983c10.448,0,18.948-8.5,18.948-18.948V19.48
	C89.88,9.032,81.38,0.531,70.932,0.531z M65.785,52.971H52.701v13.083c0,4.143-3.358,7.5-7.5,7.5s-7.5-3.357-7.5-7.5V52.971H24.618
	c-4.142,0-7.5-3.357-7.5-7.5s3.358-7.5,7.5-7.5h13.083V24.888c0-4.143,3.358-7.5,7.5-7.5s7.5,3.357,7.5,7.5v13.083h13.083
	c4.142,0,7.5,3.357,7.5,7.5S69.927,52.971,65.785,52.971z M70.932,106.562H18.948C8.5,106.562,0,115.062,0,125.51v51.983
	c0,10.448,8.5,18.948,18.948,18.948h51.983c10.448,0,18.948-8.5,18.948-18.948V125.51C89.88,115.062,81.38,106.562,70.932,106.562z
	 M65.059,160.752c2.929,2.93,2.929,7.678,0,10.607c-1.464,1.464-3.384,2.196-5.303,2.196s-3.839-0.732-5.303-2.196l-9.251-9.251
	l-9.251,9.251c-1.464,1.464-3.384,2.196-5.303,2.196s-3.839-0.732-5.303-2.196c-2.929-2.93-2.929-7.678,0-10.607l9.251-9.251
	l-9.251-9.251c-2.929-2.93-2.929-7.678,0-10.607c2.929-2.928,7.678-2.928,10.606,0l9.251,9.251l9.251-9.251
	c2.929-2.928,7.678-2.928,10.606,0c2.929,2.93,2.929,7.678,0,10.607l-9.251,9.251L65.059,160.752z M178.024,106.562h-51.983
	c-10.448,0-18.948,8.5-18.948,18.948v51.983c0,10.448,8.5,18.948,18.948,18.948h51.983c10.448,0,18.948-8.5,18.948-18.948V125.51
	C196.973,115.062,188.473,106.562,178.024,106.562z M152.033,121.751h1.167c4.142,0,7.5,3.357,7.5,7.5s-3.358,7.5-7.5,7.5h-1.167
	c-4.142,0-7.5-3.357-7.5-7.5S147.891,121.751,152.033,121.751z M153.199,181.251h-1.167c-4.142,0-7.5-3.357-7.5-7.5
	s3.358-7.5,7.5-7.5h1.167c4.142,0,7.5,3.357,7.5,7.5S157.341,181.251,153.199,181.251z M172.616,159.001h-41.167
	c-4.142,0-7.5-3.357-7.5-7.5s3.358-7.5,7.5-7.5h41.167c4.142,0,7.5,3.357,7.5,7.5S176.758,159.001,172.616,159.001z"></path>
  </symbol>
  <symbol id="chevron" xmlns="http://www.w3.org/2000/svg" viewBox="0 0 51 51">
    <defs></defs>
    <circle cx="25.5" cy="25.5" r="25.5"></circle>
    <rect x="24.4" y="27.9" width="1.6" height="15.24" rx="0.8" transform="matrix(0.78, -0.63, 0.63, 0.78, -21.26, 15.39)"></rect>
    <rect x="33.3" y="27.9" width="1.6" height="15.24" rx="0.8" transform="translate(24 -21.9) rotate(37.3)"></rect>
  </symbol>
  <symbol fill="#000000" version="1.1" id="dart-board" xmlns="http://www.w3.org/2000/svg" xmlns:xlink="http://www.w3.org/1999/xlink" xml:space="preserve" viewBox="0 0 207.514 207.514">
    <path d="M205.264,41.613l-25.552,25.552h-19.127h-10.476l-4.67,4.67l-17.763,17.763l-11.068,11.068l-9.359,9.359
	c-1.4,1.4-3.234,2.1-5.069,2.1c-1.902,0-3.806-0.753-5.223-2.258c-2.691-2.858-2.409-7.417,0.366-10.193l18.621-18.621l1.426-1.426
	l0,0l17.84-17.84l0,0l4.76-4.76V46.821V27.424l8.835-8.835l0,0l16.717-16.717c0.221-0.221,0.453-0.414,0.69-0.594
	c0.057-0.043,0.113-0.085,0.171-0.126c0.237-0.168,0.479-0.323,0.727-0.453c0.02-0.011,0.041-0.018,0.062-0.029
	c0.235-0.119,0.474-0.219,0.716-0.306c0.061-0.022,0.121-0.044,0.182-0.064c0.257-0.083,0.517-0.153,0.779-0.201
	c0.036-0.007,0.073-0.009,0.109-0.016c0.236-0.039,0.472-0.063,0.709-0.075c0.061-0.003,0.121-0.007,0.182-0.009
	c0.264-0.005,0.527,0.003,0.788,0.03c0.043,0.005,0.086,0.013,0.129,0.018c0.226,0.028,0.451,0.069,0.672,0.121
	c0.062,0.015,0.125,0.028,0.187,0.044c0.253,0.067,0.503,0.146,0.745,0.242c0.036,0.014,0.07,0.032,0.105,0.046
	c0.213,0.089,0.42,0.19,0.622,0.301c0.058,0.032,0.116,0.063,0.172,0.096c0.226,0.133,0.446,0.276,0.655,0.435
	c0.025,0.019,0.048,0.041,0.072,0.06c0.186,0.147,0.363,0.305,0.533,0.473c0.048,0.047,0.096,0.094,0.142,0.143
	c0.183,0.193,0.358,0.394,0.517,0.611c0.013,0.018,0.024,0.038,0.038,0.057c0.145,0.203,0.275,0.417,0.396,0.639
	c0.033,0.061,0.066,0.122,0.097,0.185c0.123,0.246,0.237,0.5,0.328,0.768c0.004,0.013,0.007,0.026,0.011,0.039
	c0.086,0.257,0.151,0.525,0.204,0.8c0.014,0.073,0.027,0.147,0.039,0.221c0.046,0.294,0.081,0.594,0.088,0.907l0.513,23.996
	l0.513,0.011l23.482,0.502c1.267,0.027,2.377,0.407,3.306,1.006c0.355,0.229,0.692,0.479,0.989,0.769
	c0.429,0.42,0.795,0.897,1.089,1.414c0.294,0.517,0.518,1.073,0.663,1.65C207.453,37.605,206.999,39.879,205.264,41.613z
	 M100.915,50.215c-31.296,0-56.758,25.462-56.758,56.758s25.462,56.758,56.758,56.758s56.758-25.462,56.758-56.758
	c0-7.72-1.563-15.076-4.37-21.788l-20.511,20.511c0.017,0.426,0.047,0.848,0.047,1.278c0,17.604-14.321,31.925-31.925,31.925
	s-31.925-14.322-31.925-31.925c0-17.542,14.223-31.82,31.741-31.92l20.911-20.911C115.218,51.611,108.227,50.215,100.915,50.215z
	 M190.318,77.772c-2.813,2.813-6.628,4.393-10.607,4.393h-11.476c2.862,7.735,4.438,16.089,4.438,24.807
	c0,39.568-32.19,71.758-71.758,71.758s-71.758-32.19-71.758-71.758s32.19-71.758,71.758-71.758c8.438,0,16.532,1.479,24.055,4.171
	V27.424c0-3.978,1.58-7.794,4.393-10.607l4.745-4.745c-10.397-3.647-21.566-5.64-33.194-5.64
	C45.476,6.433,0.374,51.535,0.374,106.973c0,55.438,45.103,100.541,100.541,100.541s100.541-45.103,100.541-100.541
	c0-12.042-2.136-23.592-6.037-34.301L190.318,77.772z"></path>
  </symbol>
  <symbol xmlns="http://www.w3.org/2000/svg" version="1.1" xmlns:xlink="http://www.w3.org/1999/xlink" xmlnsSvgjs="http://svgjs.dev/svgjs" viewBox="0 0 1000 1000" id="logo-color">
    <rect width="1000" height="1000" fill="#8d021f"></rect>
    <g transform="matrix(0.7,0,0,0.7,149.57575757575756,282.1265587044535)"><svg viewBox="0 0 396 247" data-background-color="#8d021f" preserveAspectRatio="xMidYMid meet" height="623" width="1000" xmlns="http://www.w3.org/2000/svg" xmlns:xlink="http://www.w3.org/1999/xlink">
        <g id="tight-bounds" transform="matrix(1,0,0,1,0.2400000000000091,-0.09999999999999432)"><svg viewBox="0 0 395.52 247.2" height="247.2" width="395.52">
            <g><svg></svg></g>
            <g><svg viewBox="0 0 395.52 247.2" height="247.2" width="395.52">
                <g transform="matrix(1,0,0,1,75.54432000000001,76.49503520126282)"><svg viewBox="0 0 244.43135999999996 94.20992959747434" height="94.20992959747434" width="244.43135999999996">
                    <g><svg viewBox="0 0 244.43135999999996 94.20992959747434" height="94.20992959747434" width="244.43135999999996">
                        <g><svg viewBox="0 0 244.43135999999996 94.20992959747434" height="94.20992959747434" width="244.43135999999996">
                            <g><svg viewBox="0 0 244.43135999999996 94.20992959747434" height="94.20992959747434" width="244.43135999999996">
                                <g><svg viewBox="0 0 244.43135999999996 94.20992959747434" height="94.20992959747434" width="244.43135999999996">
                                    <g><svg viewBox="0 0 244.43135999999996 94.20992959747434" height="94.20992959747434" width="244.43135999999996">
                                        <g transform="matrix(1,0,0,1,0,0)"><svg width="244.43135999999996" viewBox="0.25 -36.22999954223633 95.0199966430664 36.630001068115234" height="94.20992959747434" data-palette-color="#ffffff">
                                            <path d="M19.5-35.83L33.83 0 30.08 0Q29.43 0 29.03-0.33 28.63-0.65 28.43-1.15L28.43-1.15 25.08-9.8 9-9.8 5.65-1.15Q5.48-0.7 5.05-0.35 4.63 0 4 0L4 0 0.25 0 14.58-35.83 19.5-35.83ZM15.98-27.85L10.35-13.3 23.73-13.3 18.1-27.88Q17.55-29.23 17.03-31.25L17.03-31.25Q16.75-30.23 16.49-29.36 16.23-28.5 15.98-27.85L15.98-27.85ZM38.35-35.83L60.42-35.83 60.42-31.88 43.22-31.88 43.22-19.98 57.15-19.98 57.15-16.18 43.22-16.18 43.22-3.95 60.42-3.95 60.42 0 38.35 0 38.35-35.83ZM92.65-7.4L92.65-7.4Q93.05-7.4 93.37-7.08L93.37-7.08 95.27-5Q93.07-2.45 89.93-1.03 86.8 0.4 82.37 0.4L82.37 0.4Q78.5 0.4 75.34-0.94 72.2-2.27 69.97-4.69 67.75-7.1 66.52-10.48 65.3-13.85 65.3-17.9L65.3-17.9Q65.3-21.95 66.61-25.33 67.92-28.7 70.3-31.13 72.67-33.55 75.98-34.89 79.3-36.23 83.3-36.23L83.3-36.23Q87.25-36.23 90.11-35 92.97-33.77 95.19-31.68L95.19-31.68 93.62-29.45Q93.45-29.2 93.22-29.04 93-28.88 92.57-28.88L92.57-28.88Q92.25-28.88 91.88-29.11 91.52-29.35 91.02-29.7 90.52-30.05 89.84-30.45 89.17-30.85 88.25-31.2 87.32-31.55 86.09-31.79 84.87-32.02 83.27-32.02L83.27-32.02Q80.4-32.02 78.01-31.04 75.62-30.05 73.9-28.23 72.17-26.4 71.21-23.78 70.25-21.15 70.25-17.9L70.25-17.9Q70.25-14.55 71.21-11.93 72.17-9.3 73.83-7.49 75.5-5.68 77.77-4.73 80.05-3.78 82.67-3.78L82.67-3.78Q84.27-3.78 85.55-3.96 86.82-4.15 87.91-4.55 89-4.95 89.93-5.56 90.87-6.18 91.82-7.03L91.82-7.03Q92.25-7.4 92.65-7.4Z" opacity="1" transform="matrix(1,0,0,1,0,0)" fill="#ffffff" data-fill-palette-color="primary" id="text-0"></path>
                                          </svg></g>
                                      </svg></g>
                                  </svg></g>
                              </svg></g>
                          </svg></g>
                      </svg></g>
                  </svg></g>
                <path d="M173.033 70.495L173.033 17.943 384.348 17.943 384.348 229.257 173.033 229.257 173.033 176.705 181.529 176.705 181.529 220.761 375.852 220.761 375.852 26.439 181.529 26.439 181.529 70.495Z" fill="#ffffff" stroke="transparent" data-fill-palette-color="primary"></path>
              </svg></g>
            <defs></defs>
          </svg>
          <rect width="395.52" height="247.2" fill="none" stroke="none" visibility="hidden"></rect>
        </g>
      </svg></g>
  </symbol>
  <symbol version="1.1" id="quotes" xmlns="http://www.w3.org/2000/svg" xmlns:xlink="http://www.w3.org/1999/xlink" x="0px" y="0px" xml:space="preserve" viewBox="0 0 508.044 508.044">
    <g>
      <g>
        <path d="M0.108,352.536c0,66.794,54.144,120.938,120.937,120.938c66.794,0,120.938-54.144,120.938-120.938
			s-54.144-120.937-120.938-120.937c-13.727,0-26.867,2.393-39.168,6.61C109.093,82.118,230.814-18.543,117.979,64.303
			C-7.138,156.17-0.026,348.84,0.114,352.371C0.114,352.426,0.108,352.475,0.108,352.536z"></path>
        <path d="M266.169,352.536c0,66.794,54.144,120.938,120.938,120.938s120.938-54.144,120.938-120.938S453.9,231.599,387.106,231.599
			c-13.728,0-26.867,2.393-39.168,6.61C375.154,82.118,496.875-18.543,384.04,64.303C258.923,156.17,266.034,348.84,266.175,352.371
			C266.175,352.426,266.169,352.475,266.169,352.536z"></path>
      </g>
    </g>
    <g></g>
    <g></g>
    <g></g>
    <g></g>
    <g></g>
    <g></g>
    <g></g>
    <g></g>
    <g></g>
    <g></g>
    <g></g>
    <g></g>
    <g></g>
    <g></g>
    <g></g>
  </symbol>
  <symbol id="search" xmlns="http://www.w3.org/2000/svg" viewBox="0 0 21.8 23.8">
    <defs></defs>
    <path d="M11,17.9a8.7,8.7,0,0,0,.8,4.8,1,1,0,0,0,1.2.4.8.8,0,0,0,.4-1.2,8.3,8.3,0,0,1-.7-3.8,7.6,7.6,0,0,1,15.2,1.1A7.7,7.7,0,0,1,16.1,25a.8.8,0,0,0-1.2.2.9.9,0,0,0,.2,1.3A10,10,0,0,0,19.6,28a9.3,9.3,0,0,0,6.1-1.7l5.5,6.4a.9.9,0,0,0,.6.3.7.7,0,0,0,.7-.2.9.9,0,0,0,.1-1.2L27,25.2a8.9,8.9,0,0,0,2.6-5.8A9.3,9.3,0,1,0,11,17.9Z" transform="translate(-10.9 -9.3)"></path>
  </symbol>
  <symbol fill="#000000" version="1.1" id="form" xmlns="http://www.w3.org/2000/svg" xmlns:xlink="http://www.w3.org/1999/xlink" xml:space="preserve" viewBox="0 0 226.834 226.834">
    <path d="M80.197,44.939v-9.746c0-1.761,1.433-3.193,3.193-3.193h60.053c1.761,0,3.193,1.433,3.193,3.193v9.746
	c0,1.761-1.433,3.193-3.193,3.193H83.391C81.63,48.133,80.197,46.7,80.197,44.939z M131.841,17c-0.768-9.5-8.729-17-18.424-17
	S95.761,7.5,94.993,17H131.841z M192.309,55.334v151.333c0,11.12-9.047,20.167-20.167,20.167H54.692
	c-11.12,0-20.167-9.047-20.167-20.167V55.334c0-11.12,9.047-20.167,20.167-20.167h10.506c0,0.009-0.001,0.018-0.001,0.026v9.746
	c0,10.032,8.162,18.193,18.193,18.193h60.053c10.032,0,18.193-8.161,18.193-18.193v-9.746c0-0.009-0.001-0.018-0.001-0.026h10.506
	C183.262,35.167,192.309,44.214,192.309,55.334z M88.183,143.449c-3.526-2.173-8.147-1.077-10.32,2.449l-7.092,11.504l-3.661-2.884
	c-3.252-2.563-7.97-2.002-10.532,1.252c-2.563,3.255-2.002,7.97,1.252,10.533l10.271,8.089c1.332,1.049,2.969,1.607,4.64,1.607
	c0.436,0,0.875-0.038,1.311-0.115c2.105-0.374,3.952-1.629,5.074-3.449l11.506-18.666C92.806,150.243,91.709,145.623,88.183,143.449
	z M88.183,89.449c-3.526-2.174-8.147-1.076-10.32,2.449l-7.092,11.504l-3.661-2.884c-3.252-2.562-7.97-2.002-10.532,1.252
	c-2.563,3.255-2.002,7.97,1.252,10.533l10.271,8.089c1.332,1.049,2.969,1.607,4.64,1.607c0.436,0,0.875-0.038,1.311-0.115
	c2.105-0.374,3.952-1.629,5.074-3.449L90.632,99.77C92.806,96.243,91.709,91.623,88.183,89.449z M165.858,168.5
	c0-4.143-3.357-7.5-7.5-7.5h-49c-4.142,0-7.5,3.357-7.5,7.5s3.358,7.5,7.5,7.5h49C162.501,176,165.858,172.643,165.858,168.5z
	 M165.858,114.5c0-4.143-3.357-7.5-7.5-7.5h-49c-4.142,0-7.5,3.357-7.5,7.5s3.358,7.5,7.5,7.5h49
	C162.501,122,165.858,118.643,165.858,114.5z"></path>
  </symbol>
  <symbol fill="#000000" version="1.1" id="light-bulb" xmlns="http://www.w3.org/2000/svg" xmlns:xlink="http://www.w3.org/1999/xlink" xml:space="preserve" viewBox="0 0 219.496 219.496">
    <path d="M109.747,0c-0.642,0-1.278,0.007-1.924,0.022C87.11,0.512,67.628,8.991,52.969,23.898
	C38.312,38.802,30.154,58.422,30,79.143c-0.167,22.362,9.15,43.906,25.562,59.108c11.398,10.557,17.936,25.206,17.936,40.188v2.306
	v17.251c0,11.854,9.645,21.499,21.499,21.499h29.502c11.854,0,21.499-9.645,21.499-21.499v-17.251v-1.463
	c0-15.379,6.676-30.464,18.314-41.386c16.006-15.019,25.186-36.212,25.186-58.147C189.498,35.775,153.722,0,109.747,0z
	 M130.998,197.997c0,3.583-2.915,6.499-6.499,6.499H94.997c-3.584,0-6.499-2.916-6.499-6.499v-9.751h42.5V197.997z M148.375,68.073
	l-27.127,43.809v53.032c0,4.142-3.357,7.5-7.5,7.5h-8c-4.143,0-7.5-3.358-7.5-7.5v-53.032L71.121,68.073
	c-2.181-3.521-1.093-8.144,2.429-10.325c3.521-2.181,8.144-1.094,10.325,2.428l25.873,41.784l25.873-41.784
	c2.183-3.522,6.806-4.609,10.325-2.428C149.468,59.929,150.556,64.552,148.375,68.073z"></path>
  </symbol>
  <symbol xmlns="http://www.w3.org/2000/svg" viewBox="0 0 50 2" id="line">
    <path fill="#63c3ef" d="M0 0h50v2H0z"></path>
  </symbol>
  <symbol fill="#000000" version="1.1" id="megaphone" xmlns="http://www.w3.org/2000/svg" xmlns:xlink="http://www.w3.org/1999/xlink" xml:space="preserve" viewBox="0 0 212.113 212.113">
    <path d="M212.113,32.923v138.101c0,3.439-1.768,6.638-4.68,8.468c-1.62,1.018-3.467,1.532-5.321,1.532
	c-1.479,0-2.963-0.328-4.339-0.99l-87.04-41.924c-1.819,1.886-4.367,3.064-7.194,3.064H70.703l12.121,27.795
	c2.208,5.062-0.106,10.955-5.169,13.163l-14.27,6.224c-1.273,0.556-2.636,0.834-3.998,0.834c-1.239,0-2.479-0.23-3.655-0.691
	c-2.469-0.97-4.451-2.88-5.511-5.312L31.9,141.174h-4.745c-5.522,0-10-4.478-10-10v-7.818C7.441,121.751,0,113.316,0,103.154v-2.36
	c0-10.162,7.441-18.598,17.155-20.202v-7.818c0-5.522,4.478-10,10-10h76.385c2.827,0,5.375,1.178,7.193,3.064l87.04-41.923
	c3.101-1.492,6.748-1.287,9.66,0.542C210.346,26.286,212.113,29.484,212.113,32.923z"></path>
  </symbol>
  <symbol xmlns="http://www.w3.org/2000/svg" version="1.1" xmlns:xlink="http://www.w3.org/1999/xlink" xmlnsSvgjs="http://svgjs.dev/svgjs" viewBox="0 0 1000 623" id="logo-no-background">
    <g transform="matrix(1,0,0,1,-0.6060606060606233,0.2522267206477409)"><svg viewBox="0 0 396 247" data-background-color="#8d021f" preserveAspectRatio="xMidYMid meet" height="623" width="1000" xmlns="http://www.w3.org/2000/svg" xmlns:xlink="http://www.w3.org/1999/xlink">
        <g id="tight-bounds" transform="matrix(1,0,0,1,0.2400000000000091,-0.09999999999999432)"><svg viewBox="0 0 395.52 247.2" height="247.2" width="395.52">
            <g><svg></svg></g>
            <g><svg viewBox="0 0 395.52 247.2" height="247.2" width="395.52">
                <g transform="matrix(1,0,0,1,75.54432000000001,76.49503520126282)"><svg viewBox="0 0 244.43135999999996 94.20992959747434" height="94.20992959747434" width="244.43135999999996">
                    <g><svg viewBox="0 0 244.43135999999996 94.20992959747434" height="94.20992959747434" width="244.43135999999996">
                        <g><svg viewBox="0 0 244.43135999999996 94.20992959747434" height="94.20992959747434" width="244.43135999999996">
                            <g><svg viewBox="0 0 244.43135999999996 94.20992959747434" height="94.20992959747434" width="244.43135999999996">
                                <g><svg viewBox="0 0 244.43135999999996 94.20992959747434" height="94.20992959747434" width="244.43135999999996">
                                    <g><svg viewBox="0 0 244.43135999999996 94.20992959747434" height="94.20992959747434" width="244.43135999999996">
                                        <g transform="matrix(1,0,0,1,0,0)"><svg width="244.43135999999996" viewBox="0.25 -36.22999954223633 95.0199966430664 36.630001068115234" height="94.20992959747434" data-palette-color="#ffffff">
                                            <path d="M19.5-35.83L33.83 0 30.08 0Q29.43 0 29.03-0.33 28.63-0.65 28.43-1.15L28.43-1.15 25.08-9.8 9-9.8 5.65-1.15Q5.48-0.7 5.05-0.35 4.63 0 4 0L4 0 0.25 0 14.58-35.83 19.5-35.83ZM15.98-27.85L10.35-13.3 23.73-13.3 18.1-27.88Q17.55-29.23 17.03-31.25L17.03-31.25Q16.75-30.23 16.49-29.36 16.23-28.5 15.98-27.85L15.98-27.85ZM38.35-35.83L60.42-35.83 60.42-31.88 43.22-31.88 43.22-19.98 57.15-19.98 57.15-16.18 43.22-16.18 43.22-3.95 60.42-3.95 60.42 0 38.35 0 38.35-35.83ZM92.65-7.4L92.65-7.4Q93.05-7.4 93.37-7.08L93.37-7.08 95.27-5Q93.07-2.45 89.93-1.03 86.8 0.4 82.37 0.4L82.37 0.4Q78.5 0.4 75.34-0.94 72.2-2.27 69.97-4.69 67.75-7.1 66.52-10.48 65.3-13.85 65.3-17.9L65.3-17.9Q65.3-21.95 66.61-25.33 67.92-28.7 70.3-31.13 72.67-33.55 75.98-34.89 79.3-36.23 83.3-36.23L83.3-36.23Q87.25-36.23 90.11-35 92.97-33.77 95.19-31.68L95.19-31.68 93.62-29.45Q93.45-29.2 93.22-29.04 93-28.88 92.57-28.88L92.57-28.88Q92.25-28.88 91.88-29.11 91.52-29.35 91.02-29.7 90.52-30.05 89.84-30.45 89.17-30.85 88.25-31.2 87.32-31.55 86.09-31.79 84.87-32.02 83.27-32.02L83.27-32.02Q80.4-32.02 78.01-31.04 75.62-30.05 73.9-28.23 72.17-26.4 71.21-23.78 70.25-21.15 70.25-17.9L70.25-17.9Q70.25-14.55 71.21-11.93 72.17-9.3 73.83-7.49 75.5-5.68 77.77-4.73 80.05-3.78 82.67-3.78L82.67-3.78Q84.27-3.78 85.55-3.96 86.82-4.15 87.91-4.55 89-4.95 89.93-5.56 90.87-6.18 91.82-7.03L91.82-7.03Q92.25-7.4 92.65-7.4Z" opacity="1" transform="matrix(1,0,0,1,0,0)" fill="#ffffff" data-fill-palette-color="primary" id="text-0"></path>
                                          </svg></g>
                                      </svg></g>
                                  </svg></g>
                              </svg></g>
                          </svg></g>
                      </svg></g>
                  </svg></g>
                <path d="M173.033 70.495L173.033 17.943 384.348 17.943 384.348 229.257 173.033 229.257 173.033 176.705 181.529 176.705 181.529 220.761 375.852 220.761 375.852 26.439 181.529 26.439 181.529 70.495Z" fill="#ffffff" stroke="transparent" data-fill-palette-color="primary"></path>
              </svg></g>
            <defs></defs>
          </svg>
          <rect width="395.52" height="247.2" fill="none" stroke="none" visibility="hidden"></rect>
        </g>
      </svg></g>
  </symbol>
  <symbol id="menu" enable-background="new 0 0 24 24" xmlns="http://www.w3.org/2000/svg" viewBox="0 0 24 24">
    <g>
      <path d="m21.5 24h-19c-1.379 0-2.5-1.122-2.5-2.5v-19c0-1.378 1.121-2.5 2.5-2.5h19c1.379 0 2.5 1.122 2.5 2.5v19c0 1.378-1.121 2.5-2.5 2.5zm-19-23c-.827 0-1.5.673-1.5 1.5v19c0 .827.673 1.5 1.5 1.5h19c.827 0 1.5-.673 1.5-1.5v-19c0-.827-.673-1.5-1.5-1.5z"></path>
    </g>
    <g>
      <path d="m16.5 8h-9c-.276 0-.5-.224-.5-.5s.224-.5.5-.5h9c.276 0 .5.224.5.5s-.224.5-.5.5z"></path>
    </g>
    <g>
      <path d="m16.5 12.5h-9c-.276 0-.5-.224-.5-.5s.224-.5.5-.5h9c.276 0 .5.224.5.5s-.224.5-.5.5z"></path>
    </g>
    <g>
      <path d="m16.5 17h-9c-.276 0-.5-.224-.5-.5s.224-.5.5-.5h9c.276 0 .5.224.5.5s-.224.5-.5.5z"></path>
    </g>
  </symbol>
  <symbol xmlns="http://www.w3.org/2000/svg" version="1.1" xmlns:xlink="http://www.w3.org/1999/xlink" xmlnsSvgjs="http://svgjs.dev/svgjs" viewBox="0 0 1000 1000" id="logo-white">
    <rect width="1000" height="1000" fill="#000000"></rect>
    <g transform="matrix(0.7,0,0,0.7,149.57575757575756,282.1265587044535)"><svg viewBox="0 0 396 247" data-background-color="#8d021f" preserveAspectRatio="xMidYMid meet" height="623" width="1000" xmlns="http://www.w3.org/2000/svg" xmlns:xlink="http://www.w3.org/1999/xlink">
        <g id="tight-bounds" transform="matrix(1,0,0,1,0.2400000000000091,-0.09999999999999432)"><svg viewBox="0 0 395.52 247.2" height="247.2" width="395.52">
            <g><svg></svg></g>
            <g><svg viewBox="0 0 395.52 247.2" height="247.2" width="395.52">
                <g transform="matrix(1,0,0,1,75.54432000000001,76.49503520126282)"><svg viewBox="0 0 244.43135999999996 94.20992959747434" height="94.20992959747434" width="244.43135999999996">
                    <g><svg viewBox="0 0 244.43135999999996 94.20992959747434" height="94.20992959747434" width="244.43135999999996">
                        <g><svg viewBox="0 0 244.43135999999996 94.20992959747434" height="94.20992959747434" width="244.43135999999996">
                            <g><svg viewBox="0 0 244.43135999999996 94.20992959747434" height="94.20992959747434" width="244.43135999999996">
                                <g><svg viewBox="0 0 244.43135999999996 94.20992959747434" height="94.20992959747434" width="244.43135999999996">
                                    <g><svg viewBox="0 0 244.43135999999996 94.20992959747434" height="94.20992959747434" width="244.43135999999996">
                                        <g transform="matrix(1,0,0,1,0,0)"><svg width="244.43135999999996" viewBox="0.25 -36.22999954223633 95.0199966430664 36.630001068115234" height="94.20992959747434" data-palette-color="#ffffff">
                                            <path d="M19.5-35.83L33.83 0 30.08 0Q29.43 0 29.03-0.33 28.63-0.65 28.43-1.15L28.43-1.15 25.08-9.8 9-9.8 5.65-1.15Q5.48-0.7 5.05-0.35 4.63 0 4 0L4 0 0.25 0 14.58-35.83 19.5-35.83ZM15.98-27.85L10.35-13.3 23.73-13.3 18.1-27.88Q17.55-29.23 17.03-31.25L17.03-31.25Q16.75-30.23 16.49-29.36 16.23-28.5 15.98-27.85L15.98-27.85ZM38.35-35.83L60.42-35.83 60.42-31.88 43.22-31.88 43.22-19.98 57.15-19.98 57.15-16.18 43.22-16.18 43.22-3.95 60.42-3.95 60.42 0 38.35 0 38.35-35.83ZM92.65-7.4L92.65-7.4Q93.05-7.4 93.37-7.08L93.37-7.08 95.27-5Q93.07-2.45 89.93-1.03 86.8 0.4 82.37 0.4L82.37 0.4Q78.5 0.4 75.34-0.94 72.2-2.27 69.97-4.69 67.75-7.1 66.52-10.48 65.3-13.85 65.3-17.9L65.3-17.9Q65.3-21.95 66.61-25.33 67.92-28.7 70.3-31.13 72.67-33.55 75.98-34.89 79.3-36.23 83.3-36.23L83.3-36.23Q87.25-36.23 90.11-35 92.97-33.77 95.19-31.68L95.19-31.68 93.62-29.45Q93.45-29.2 93.22-29.04 93-28.88 92.57-28.88L92.57-28.88Q92.25-28.88 91.88-29.11 91.52-29.35 91.02-29.7 90.52-30.05 89.84-30.45 89.17-30.85 88.25-31.2 87.32-31.55 86.09-31.79 84.87-32.02 83.27-32.02L83.27-32.02Q80.4-32.02 78.01-31.04 75.62-30.05 73.9-28.23 72.17-26.4 71.21-23.78 70.25-21.15 70.25-17.9L70.25-17.9Q70.25-14.55 71.21-11.93 72.17-9.3 73.83-7.49 75.5-5.68 77.77-4.73 80.05-3.78 82.67-3.78L82.67-3.78Q84.27-3.78 85.55-3.96 86.82-4.15 87.91-4.55 89-4.95 89.93-5.56 90.87-6.18 91.82-7.03L91.82-7.03Q92.25-7.4 92.65-7.4Z" opacity="1" transform="matrix(1,0,0,1,0,0)" fill="#ffffff" data-fill-palette-color="primary" id="text-0"></path>
                                          </svg></g>
                                      </svg></g>
                                  </svg></g>
                              </svg></g>
                          </svg></g>
                      </svg></g>
                  </svg></g>
                <path d="M173.033 70.495L173.033 17.943 384.348 17.943 384.348 229.257 173.033 229.257 173.033 176.705 181.529 176.705 181.529 220.761 375.852 220.761 375.852 26.439 181.529 26.439 181.529 70.495Z" fill="#ffffff" stroke="transparent" data-fill-palette-color="primary"></path>
              </svg></g>
            <defs></defs>
          </svg>
          <rect width="395.52" height="247.2" fill="none" stroke="none" visibility="hidden"></rect>
        </g>
      </svg></g>
  </symbol>
  <symbol fill="#000000" version="1.1" id="puzzle" xmlns="http://www.w3.org/2000/svg" xmlns:xlink="http://www.w3.org/1999/xlink" xml:space="preserve" viewBox="0 0 206.185 206.185">
    <path d="M168.395,92.03c-3.313,0-6.574,0.492-9.687,1.44V51.833c0-4.142-3.357-7.5-7.5-7.5h-38.232
	c1.241-3.513,1.888-7.253,1.888-11.104C114.864,14.906,99.958,0,81.635,0S48.405,14.906,48.405,33.229
	c0,3.851,0.646,7.592,1.888,11.104H12.061c-4.143,0-7.5,3.358-7.5,7.5v49.721c0,2.515,1.261,4.863,3.357,6.252
	c2.097,1.389,4.75,1.636,7.066,0.654c2.243-0.95,4.631-1.431,7.097-1.431c10.052,0,18.23,8.178,18.23,18.229
	c0,10.051-8.178,18.229-18.23,18.229c-2.466,0-4.853-0.481-7.097-1.431c-2.316-0.982-4.97-0.735-7.066,0.654
	c-2.097,1.389-3.357,3.737-3.357,6.252v49.721c0,4.142,3.357,7.5,7.5,7.5h45.687c0.007,0.001,0.015,0,0.02,0
	c4.143,0,7.5-3.358,7.5-7.5c0-1.152-0.259-2.243-0.724-3.219c-0.756-2.032-1.139-4.163-1.139-6.341
	c0-10.052,8.178-18.229,18.229-18.229s18.229,8.178,18.229,18.229c0,2.332-0.439,4.609-1.305,6.77
	c-0.926,2.311-0.645,4.931,0.75,6.993c1.396,2.062,3.723,3.297,6.212,3.297h45.687c4.143,0,7.5-3.358,7.5-7.5v-41.636
	c3.112,0.948,6.373,1.44,9.687,1.44c18.322,0,33.229-14.906,33.229-33.229S186.718,92.03,168.395,92.03z"></path>
  </symbol>
  <symbol xmlns="http://www.w3.org/2000/svg" version="1.1" xmlns:xlink="http://www.w3.org/1999/xlink" xmlnsSvgjs="http://svgjs.dev/svgjs" viewBox="0 0 1000 1000" id="logo-black">
    <rect width="1000" height="1000" fill="#ffffff"></rect>
    <g transform="matrix(0.7,0,0,0.7,149.57575757575756,282.1265587044535)"><svg viewBox="0 0 396 247" data-background-color="#8d021f" preserveAspectRatio="xMidYMid meet" height="623" width="1000" xmlns="http://www.w3.org/2000/svg" xmlns:xlink="http://www.w3.org/1999/xlink">
        <g id="tight-bounds" transform="matrix(1,0,0,1,0.2400000000000091,-0.09999999999999432)"><svg viewBox="0 0 395.52 247.2" height="247.2" width="395.52">
            <g><svg></svg></g>
            <g><svg viewBox="0 0 395.52 247.2" height="247.2" width="395.52">
                <g transform="matrix(1,0,0,1,75.54432000000001,76.49503520126282)"><svg viewBox="0 0 244.43135999999996 94.20992959747434" height="94.20992959747434" width="244.43135999999996">
                    <g><svg viewBox="0 0 244.43135999999996 94.20992959747434" height="94.20992959747434" width="244.43135999999996">
                        <g><svg viewBox="0 0 244.43135999999996 94.20992959747434" height="94.20992959747434" width="244.43135999999996">
                            <g><svg viewBox="0 0 244.43135999999996 94.20992959747434" height="94.20992959747434" width="244.43135999999996">
                                <g><svg viewBox="0 0 244.43135999999996 94.20992959747434" height="94.20992959747434" width="244.43135999999996">
                                    <g><svg viewBox="0 0 244.43135999999996 94.20992959747434" height="94.20992959747434" width="244.43135999999996">
                                        <g transform="matrix(1,0,0,1,0,0)"><svg width="244.43135999999996" viewBox="0.25 -36.22999954223633 95.0199966430664 36.630001068115234" height="94.20992959747434" data-palette-color="#ffffff">
                                            <path d="M19.5-35.83L33.83 0 30.08 0Q29.43 0 29.03-0.33 28.63-0.65 28.43-1.15L28.43-1.15 25.08-9.8 9-9.8 5.65-1.15Q5.48-0.7 5.05-0.35 4.63 0 4 0L4 0 0.25 0 14.58-35.83 19.5-35.83ZM15.98-27.85L10.35-13.3 23.73-13.3 18.1-27.88Q17.55-29.23 17.03-31.25L17.03-31.25Q16.75-30.23 16.49-29.36 16.23-28.5 15.98-27.85L15.98-27.85ZM38.35-35.83L60.42-35.83 60.42-31.88 43.22-31.88 43.22-19.98 57.15-19.98 57.15-16.18 43.22-16.18 43.22-3.95 60.42-3.95 60.42 0 38.35 0 38.35-35.83ZM92.65-7.4L92.65-7.4Q93.05-7.4 93.37-7.08L93.37-7.08 95.27-5Q93.07-2.45 89.93-1.03 86.8 0.4 82.37 0.4L82.37 0.4Q78.5 0.4 75.34-0.94 72.2-2.27 69.97-4.69 67.75-7.1 66.52-10.48 65.3-13.85 65.3-17.9L65.3-17.9Q65.3-21.95 66.61-25.33 67.92-28.7 70.3-31.13 72.67-33.55 75.98-34.89 79.3-36.23 83.3-36.23L83.3-36.23Q87.25-36.23 90.11-35 92.97-33.77 95.19-31.68L95.19-31.68 93.62-29.45Q93.45-29.2 93.22-29.04 93-28.88 92.57-28.88L92.57-28.88Q92.25-28.88 91.88-29.11 91.52-29.35 91.02-29.7 90.52-30.05 89.84-30.45 89.17-30.85 88.25-31.2 87.32-31.55 86.09-31.79 84.87-32.02 83.27-32.02L83.27-32.02Q80.4-32.02 78.01-31.04 75.62-30.05 73.9-28.23 72.17-26.4 71.21-23.78 70.25-21.15 70.25-17.9L70.25-17.9Q70.25-14.55 71.21-11.93 72.17-9.3 73.83-7.49 75.5-5.68 77.77-4.73 80.05-3.78 82.67-3.78L82.67-3.78Q84.27-3.78 85.55-3.96 86.82-4.15 87.91-4.55 89-4.95 89.93-5.56 90.87-6.18 91.82-7.03L91.82-7.03Q92.25-7.4 92.65-7.4Z" opacity="1" transform="matrix(1,0,0,1,0,0)" fill="#000000" data-fill-palette-color="primary" id="text-0"></path>
                                          </svg></g>
                                      </svg></g>
                                  </svg></g>
                              </svg></g>
                          </svg></g>
                      </svg></g>
                  </svg></g>
                <path d="M173.033 70.495L173.033 17.943 384.348 17.943 384.348 229.257 173.033 229.257 173.033 176.705 181.529 176.705 181.529 220.761 375.852 220.761 375.852 26.439 181.529 26.439 181.529 70.495Z" fill="#000000" stroke="transparent" data-fill-palette-color="primary"></path>
              </svg></g>
            <defs></defs>
          </svg>
          <rect width="395.52" height="247.2" fill="none" stroke="none" visibility="hidden"></rect>
        </g>
      </svg></g>
  </symbol>
  <symbol fill="#000000" version="1.1" id="stopwatch" xmlns="http://www.w3.org/2000/svg" xmlns:xlink="http://www.w3.org/1999/xlink" xml:space="preserve" viewBox="0 0 220.43 220.43">
    <path d="M180.385,67.03l10.784-14.567c2.465-3.329,1.764-8.026-1.565-10.491l-10.574-7.828c-1.598-1.183-3.603-1.682-5.569-1.39
	c-1.967,0.294-3.737,1.356-4.921,2.955l-9.538,12.885c-6.323-3.959-13.152-7.172-20.368-9.518V25.333
	C138.634,11.364,127.269,0,113.3,0h-8.706C90.625,0,79.261,11.364,79.261,25.333v14.149c0,0.152,0.014,0.301,0.023,0.45
	c-35.839,12.813-61.569,47.228-61.569,87.573c0,51.238,41.495,92.924,92.5,92.924s92.5-41.686,92.5-92.924
	C202.715,104.43,194.296,83.295,180.385,67.03z M110.215,145.206c-9.732,0-17.649-7.94-17.649-17.7
	c0-7.182,4.294-13.365,10.437-16.137c-0.183-0.648-0.287-1.33-0.287-2.037V67.719c0-4.143,3.358-7.5,7.5-7.5s7.5,3.357,7.5,7.5
	v41.613c0,0.707-0.105,1.388-0.287,2.037c6.143,2.772,10.437,8.956,10.437,16.137C127.864,137.266,119.947,145.206,110.215,145.206z
	"></path>
  </symbol>
  <symbol xmlns="http://www.w3.org/2000/svg" viewBox="0 0 16 11" id="tick">
    <defs></defs>
    <path id="Shape_10_copy_5" d="M2,4L6,8l8-8"></path>
  </symbol>
</svg>